<?xml version="1.0" standalone="no"?>
<!DOCTYPE svg PUBLIC "-//W3C//DTD SVG 1.1//EN"
  "http://www.w3.org/Graphics/SVG/1.1/DTD/svg11.dtd">
<svg width="84mm" height="79.99999999999997mm" viewBox="-49 -54.999999999999986 84 79.99999999999997" xmlns="http://www.w3.org/2000/svg" version="1.1">
	<title>svgOutput</title>
	<desc>made with tinkercad</desc>
<path d="M -6.020637035369873 15.999999999999996 L -6 16.002000808715817 L -6 22.097560882568356 L -2.7959229946136475 16.002000808715817 L -2.666398048400879 15.755586624145504 L -2.6239421367645264 15.67481708526611 L -2.2750000953674316 15.640999794006344 L -6.89868567341754e-15 14.974966049194332 L 1.4140000343322754 14.56099987030029 L 5.0320000648498535 12.772999763488766 L 8.543000221252441 10.29300022125244 L 11.913999557495117 7.145999908447264 L 15.11299991607666 3.3619999885559073 L 18.108999252319336 -1.0230000019073482 L 20.871999740600586 -5.966000080108642 L 23.375999450683594 -11.420000076293944 L 25.597999572753906 -17.33200073242187 L 27.514999389648438 -23.64500045776367 L 29.110000610351562 -30.298999786376946 L 30.365999221801758 -37.22999954223632 L 31.27199935913086 -44.36999893188476 L 31.662031173706055 -49.552158355712876 L 31.773283004760742 -49.76380538940428 L 32.00199890136719 -50.19892501831053 L 34 -53.999999999999986 L 34 16.002000808715817 L 34 23.999999999999993 L -7 23.999999999999993 L -44.00299835205078 23.999999999999993 L -48 23.999999999999993 L -48 -53.999999999999986 L -44.00299835205078 -46.395950317382805 L -43.37826156616211 -45.20742416381835 L -43.32780456542969 -45.111431121826165 L -43.27199935913086 -44.36999893188476 L -42.36600112915039 -37.22999954223632 L -41.11000061035156 -30.298999786376946 L -39.51499938964844 -23.64500045776367 L -37.597999572753906 -17.33200073242187 L -35.375999450683594 -11.420000076293944 L -32.87200164794922 -5.966000080108642 L -30.108999252319336 -1.0230000019073482 L -29.41004753112793 1.1102230246251565e-16 L -27.113000869750977 3.3619999885559073 L -23.913999557495117 7.145999908447264 L -20.542999267578125 10.29300022125244 L -17.031999588012695 12.772999763488766 L -13.413999557495117 14.56099987030029 L -11.697354316711426 15.063569068908688 L -11.48340892791748 15.470587730407711 L -11.204076766967773 16.002000808715817 L -9 20.195121765136715 L -9 16.002000808715817 L -9 15.999999999999996 L -6.020637035369873 15.999999999999996 z" fill="none" stroke="rgb(255,0,0)" stroke-width="0.001mm" />
</svg>